<svg height="512" viewBox="0 0 64 64" width="512" xmlns="http://www.w3.org/2000/svg"><g id="Fill_Outline" data-name="Fill Outline"><path d="m32 53h16a0 0 0 0 1 0 0v2a2 2 0 0 1 -2 2h-12a2 2 0 0 1 -2-2v-2a0 0 0 0 1 0 0z" fill="#57b7eb"/><path d="m36 57h8v4h-8z" fill="#57b7eb"/><path d="m32 53v2a2 2 0 0 0 2 2h1a2 2 0 0 1 2-2h11v-2z" fill="#4891d3"/><path d="m36 57v4h2a2 2 0 0 1 2-2h4v-2z" fill="#4891d3"/><path d="m11 18h4v19h-4z" fill="#57b7eb"/><path d="m15 22.62v-4.62h-4v11h4v-2a2 2 0 0 1 -2-2v-1.14a4 4 0 0 0 2-1.24z" fill="#4891d3"/><path d="m9 29h10a0 0 0 0 1 0 0v4a0 0 0 0 1 0 0h-10a2 2 0 0 1 -2-2 2 2 0 0 1 2-2z" fill="#aae1f9"/><rect fill="#f9e109" height="19" rx="4" width="8" x="9" y="3"/><path d="m16 29a2 2 0 0 1 -2 2h-7a2 2 0 0 0 2 2h10v-4z" fill="#57b7eb"/><path d="m11 33h4v2h-4z" fill="#4891d3"/><path d="m13 13v-10a4 4 0 0 0 -4 4v11a4 4 0 0 0 8 0v-1a4 4 0 0 1 -4-4z" fill="#fcbc04"/><rect fill="#c4f236" height="28" rx="4" width="42" x="19" y="25"/><path d="m31 7h24a2 2 0 0 1 2 2v16a0 0 0 0 1 0 0h-28a0 0 0 0 1 0 0v-16a2 2 0 0 1 2-2z" fill="#aae1f9"/><path d="m33 13v-6h-2a2 2 0 0 0 -2 2v16h28v-4h-16a8 8 0 0 1 -8-8z" fill="#57b7eb"/><circle cx="40" cy="39" fill="#57b7eb" r="8"/><circle cx="40" cy="39" fill="#4891d3" r="4"/><path d="m51 29h6v4h-6z" fill="#57b7eb"/><circle cx="43" cy="15" fill="#f9e109" r="4"/><path d="m39 19h8a2 2 0 0 1 2 2v4a0 0 0 0 1 0 0h-12a0 0 0 0 1 0 0v-4a2 2 0 0 1 2-2z" fill="#f9e109"/><path d="m25 21h2a2 2 0 0 1 2 2v2a0 0 0 0 1 0 0h-6a0 0 0 0 1 0 0v-2a2 2 0 0 1 2-2z" fill="#f8664f"/><path d="m45 17a4 4 0 0 1 -4-4 3.9 3.9 0 0 1 .36-1.64 4 4 0 1 0 5.28 5.28 3.9 3.9 0 0 1 -1.64.36z" fill="#fcbc04"/><path d="m41 21a7.94 7.94 0 0 1 -3.76-.94 2 2 0 0 0 -.24.94v4h12v-4z" fill="#fcbc04"/><path d="m40 19h-1a2 2 0 0 0 -2 2v4h12v-2h-5a4 4 0 0 1 -4-4z" fill="#fcbc04"/><path d="m40.54 21a8 8 0 0 1 -3.3-.91 1.92 1.92 0 0 0 -.16.42s0 0 0 0a1.91 1.91 0 0 0 -.08.49v4h12v-2h-5a4 4 0 0 1 -3.46-2z" fill="#e59730"/><path d="m25 21h1a0 0 0 0 1 0 0v1a2 2 0 0 1 -2 2h-1a0 0 0 0 1 0 0v-1a2 2 0 0 1 2-2z" fill="#f89c8d"/><circle cx="41.5" cy="37.5" fill="#aae1f9" r="1.5"/><path d="m51 29v1h3a2 2 0 0 1 2 2v1h1v-4z" fill="#4891d3"/><path d="m23 37v-12a4 4 0 0 0 -4 4v20a4 4 0 0 0 4 4h34a4 4 0 0 0 4-4h-26a12 12 0 0 1 -12-12z" fill="#a1d51c"/><g fill="#39519d"><path d="m61 42a1 1 0 0 0 1-1v-12a5 5 0 0 0 -4-4.9v-15.1a3 3 0 0 0 -3-3h-24a3 3 0 0 0 -3 3v9a1 1 0 0 0 2 0v-9a1 1 0 0 1 1-1h24a1 1 0 0 1 1 1v15h-6v-3a3 3 0 0 0 -3-3 4.92 4.92 0 0 0 1-3 5 5 0 0 0 -10 0 4.92 4.92 0 0 0 1 3 3 3 0 0 0 -3 3v3h-6v-1a3 3 0 0 0 -3-3h-2a3 3 0 0 0 -3 3v1.1a5 5 0 0 0 -3.9 3.9h-2.1v-6a5 5 0 0 0 2-4v-11a5 5 0 0 0 -10 0v11a5 5 0 0 0 2 4v3a1 1 0 0 0 2 0v-2.1a5 5 0 0 0 2 0v5.1h-5a3 3 0 0 0 0 6h1v1a3 3 0 0 0 2 2.82v2.18a2 2 0 0 1 -2 2h-5a3 3 0 0 0 0 6h13v1a5 5 0 0 0 5 5h8v1a3 3 0 0 0 3 3h1v3a1 1 0 0 0 2 0v-3h6v3a1 1 0 0 0 2 0v-3h1a1 1 0 0 0 0-2h-12a1 1 0 0 1 -1-1v-1h24a5 5 0 0 0 5-5v-4a1 1 0 0 0 -2 0v4a3 3 0 0 1 -3 3h-34a3 3 0 0 1 -3-3v-20a3 3 0 0 1 3-3h34a3 3 0 0 1 3 3v12a1 1 0 0 0 1 1zm-51-24h1a1 1 0 0 0 0-2h-1v-2h1a1 1 0 0 0 0-2h-1v-2h1a1 1 0 0 0 0-2h-1v-1a3 3 0 0 1 6 0v1h-1a1 1 0 0 0 0 2h1v2h-1a1 1 0 0 0 0 2h1v2h-1a1 1 0 0 0 0 2h1a3 3 0 0 1 -6 0zm-2 13a1 1 0 0 1 1-1h9v2h-9a1 1 0 0 1 -1-1zm6 3v1a1 1 0 0 1 -2 0v-1zm-9 12a1 1 0 0 1 0-2h5a4 4 0 0 0 4-4v-2.18a3 3 0 0 0 2-2.82v-1h2v12zm35-31a3 3 0 1 1 3 3 3 3 0 0 1 -3-3zm-16 9v-1a1 1 0 0 1 1-1h2a1 1 0 0 1 1 1v1zm14 0v-3a1 1 0 0 1 1-1h8a1 1 0 0 1 1 1v3z"/><path d="m33.62 34.08a1 1 0 0 0 -1.37.35 9 9 0 1 0 3.18-3.18 1 1 0 0 0 1 1.73 7 7 0 1 1 -2.43 2.47 1 1 0 0 0 -.38-1.37z"/><path d="m40 44a5 5 0 1 0 -5-5 5 5 0 0 0 5 5zm0-8a3 3 0 1 1 -3 3 3 3 0 0 1 3-3z"/><path d="m51 28a1 1 0 0 0 -1 1v4a1 1 0 0 0 1 1h6a1 1 0 0 0 1-1v-4a1 1 0 0 0 -1-1zm5 4h-4v-2h4z"/></g></g></svg>